<svg xmlns="http://www.w3.org/2000/svg" width="16" height="16" viewBox="0 0 16 16"><path fill="#ff3d00" d="M4.419 14.982c-1.573-.562-2.715-1.96-3.168-3.879-.205-.87-.263-2.309-.093-2.309.057 0 .208.395.336.878.28 1.055.758 2.048 1.22 2.533.766.806 2.664 1.122 3.758.625.852-.387 1.198-1.306.827-2.201-.286-.691-.936-.922-2.146-.764 0 0-.741-.798-.978-2.215l.76.069c.916.083 1.607-.12 1.966-.576.337-.428.33-.594-.045-1.03-.542-.63-1.514-.47-3.482.57L2.381 5.02l.417-.317c1.043-.796 2.854-1.194 3.885-.854.94.31 1.628 1.54 1.444 2.577-.124.701-.686 1.683-1.12 1.958l-.375.237.517.233c.88.397 1.416.094 2.057-1.161.888-1.737 1.463-2.186 2.801-2.188.623-.001.845.064 1.3.383 1.134.795 1.752 2.44 1.616 4.307-.172 2.364-1.292 3.798-2.966 3.798-.919 0-1.511-.322-1.982-1.079-.415-.664-.601-1.98-.363-2.56.114-.277.134-.286.142-.064.014.408.478 1.072.905 1.293 1.047.541 2.55-.139 3.144-1.423.452-.975.21-2.856-.41-3.188-.13-.069-.45-.126-.712-.126-.557 0-.994.4-1.607 1.471-.212.37-.568.849-.792 1.063-.364.348-.494.39-1.222.39h-.814l.263.585c.377.837.359 2.197-.04 3.024-.352.732-1.166 1.472-1.817 1.653-.634.176-1.666.154-2.233-.049M7.486 3.67c-.36-.615-.582-1.762-.34-1.762.283.615.864 1.164 1.487 1.547 1.118.542 2.252.323 3.491-.673.273-.219.515-.374.537-.344.303.47.826.853.999 1.399 0 .23-.991.892-1.773 1.185-1.938.558-3.257.337-4.401-1.352m.976-1.421L9.724.85l1.402 1.298c-.48.395-.826 1.008-1.374 1.319-.433-.32-1.079-.696-1.29-1.218" class="colorff4500 svgShape" style="stroke-width:.999996"/></svg>